STARTFONT 2.1
COMMENT AUTOMATICALLY GENERATED FILE. DO NOT EDIT!
COMMENT Generated with 'ucs2any ncenBI18.bdf /usr/local/share/fonts/X11/util/map-ISO8859-10 ISO8859-10'
COMMENT from an ISO10646-1 encoded source BDF font.
COMMENT ucs2any by Ben Collver <collver1@attbi.com>, 2003, based on
COMMENT ucs2any.pl by Markus Kuhn <http://www.cl.cam.ac.uk/~mgk25/>, 2000.
FONT -Adobe-New Century Schoolbook-Bold-I-Normal--18-180-75-75-P-111-ISO8859-10
SIZE 18 75 75
FONTBOUNDINGBOX 25 27 -5 -8
COMMENT ISO10646-1 extension by Markus Kuhn <mkuhn@acm.org>, 2001-03-20
COMMENT
COMMENT +
COMMENT  Copyright 1984-1989, 1994 Adobe Systems Incorporated.
COMMENT  Copyright 1988, 1994 Digital Equipment Corporation.
COMMENT
COMMENT  Adobe is a trademark of Adobe Systems Incorporated which may be
COMMENT  registered in certain jurisdictions.
COMMENT  Permission to use these trademarks is hereby granted only in
COMMENT  association with the images described in this file.
COMMENT
COMMENT  Permission to use, copy, modify, distribute and sell this software
COMMENT  and its documentation for any purpose and without fee is hereby
COMMENT  granted, provided that the above copyright notices appear in all
COMMENT  copies and that both those copyright notices and this permission
COMMENT  notice appear in supporting documentation, and that the names of
COMMENT  Adobe Systems and Digital Equipment Corporation not be used in
COMMENT  advertising or publicity pertaining to distribution of the software
COMMENT  without specific, written prior permission.  Adobe Systems and
COMMENT  Digital Equipment Corporation make no representations about the
COMMENT  suitability of this software for any purpose.  It is provided "as
COMMENT  is" without express or implied warranty.
COMMENT -
STARTPROPERTIES 26
FOUNDRY "Adobe"
FAMILY_NAME "New Century Schoolbook"
WEIGHT_NAME "Bold"
SLANT "I"
SETWIDTH_NAME "Normal"
ADD_STYLE_NAME ""
PIXEL_SIZE 18
POINT_SIZE 180
RESOLUTION_X 75
RESOLUTION_Y 75
SPACING "P"
AVERAGE_WIDTH 111

STARTCHAR defaultchar
ENCODING 0
SWIDTH 870 0
DWIDTH 17 0
BBX 15 13 0 0
BITMAP
AAAA
0000
8002
0000
8002
0000
8002
0000
8002
0000
8002
0000
AAAA
ENDCHAR
STARTCHAR space
ENCODING 32
SWIDTH 287 0
DWIDTH 5 0
BBX 1 1 0 0
BITMAP
00
ENDCHAR
STARTCHAR exclam
ENCODING 33
SWIDTH 333 0
DWIDTH 8 0
BBX 7 14 0 0
BITMAP
0C
1E
1E
1C
1C
38
38
30
30
00
60
F0
F0
60
ENDCHAR
STARTCHAR quotedbl
ENCODING 34
SWIDTH 400 0
DWIDTH 9 0
BBX 6 6 1 7
BITMAP
CC
CC
CC
CC
CC
CC
ENDCHAR
STARTCHAR numbersign
ENCODING 35
SWIDTH 606 0
DWIDTH 11 0
BBX 10 14 0 0
BITMAP
0900
0900
0900
7FC0
7FC0
1200
1200
1200
FF80
FF80
2400
2400
2400
2400
ENDCHAR
STARTCHAR dollar
ENCODING 36
SWIDTH 574 0
DWIDTH 11 0
BBX 10 17 1 -3
BITMAP
0200
0F80
34C0
25C0
6580
7400
7C00
3F00
1F80
0B80
6980
E980
CB00
FE00
1800
1000
1000
ENDCHAR
STARTCHAR percent
ENCODING 37
SWIDTH 889 0
DWIDTH 15 0
BBX 14 15 0 -1
BITMAP
38C0
6740
64C0
C480
C580
C900
CB38
7264
0664
04C4
0CC4
08C8
18C8
1070
1000
ENDCHAR
STARTCHAR ampersand
ENCODING 38
SWIDTH 889 0
DWIDTH 18 0
BBX 17 14 0 0
BITMAP
01E000
073000
0E3000
0E2000
0F4000
078000
0F8F00
33C600
63C400
E1E800
E0F080
E0F900
F1FE00
3E3C00
ENDCHAR
STARTCHAR quotesingle
ENCODING 39
SWIDTH 287 0
DWIDTH 5 0
BBX 2 6 1 9
BITMAP
C0
C0
C0
C0
C0
C0
ENDCHAR
STARTCHAR parenleft
ENCODING 40
SWIDTH 407 0
DWIDTH 7 0
BBX 6 16 0 -2
BITMAP
0C
18
30
30
60
60
60
C0
C0
C0
C0
C0
60
60
30
18
ENDCHAR
STARTCHAR parenright
ENCODING 41
SWIDTH 407 0
DWIDTH 8 0
BBX 6 16 0 -2
BITMAP
60
30
18
18
0C
0C
0C
0C
0C
18
18
18
30
30
60
C0
ENDCHAR
STARTCHAR asterisk
ENCODING 42
SWIDTH 500 0
DWIDTH 9 0
BBX 8 8 0 2
BITMAP
0C
6C
6B
1F
F8
D6
36
30
ENDCHAR
STARTCHAR plus
ENCODING 43
SWIDTH 606 0
DWIDTH 11 0
BBX 10 10 0 1
BITMAP
0C00
0C00
0C00
0C00
FFC0
FFC0
0C00
0C00
0C00
0C00
ENDCHAR
STARTCHAR comma
ENCODING 44
SWIDTH 287 0
DWIDTH 5 0
BBX 4 7 0 -3
BITMAP
60
F0
F0
70
20
40
80
ENDCHAR
STARTCHAR hyphen
ENCODING 45
SWIDTH 333 0
DWIDTH 6 0
BBX 5 2 0 4
BITMAP
F8
F8
ENDCHAR
STARTCHAR period
ENCODING 46
SWIDTH 287 0
DWIDTH 5 0
BBX 4 4 0 0
BITMAP
60
F0
F0
60
ENDCHAR
STARTCHAR slash
ENCODING 47
SWIDTH 278 0
DWIDTH 7 0
BBX 6 15 0 -1
BITMAP
0C
0C
0C
18
18
18
30
30
30
60
60
60
C0
C0
C0
ENDCHAR
STARTCHAR zero
ENCODING 48
SWIDTH 574 0
DWIDTH 11 0
BBX 9 14 1 0
BITMAP
0E00
3B00
7380
7380
7380
E380
E380
E380
E380
E700
E700
E700
6E00
3800
ENDCHAR
STARTCHAR one
ENCODING 49
SWIDTH 574 0
DWIDTH 11 0
BBX 7 14 2 0
BITMAP
06
1E
7E
0E
0E
0C
1C
1C
1C
38
38
38
38
FE
ENDCHAR
STARTCHAR two
ENCODING 50
SWIDTH 574 0
DWIDTH 11 0
BBX 9 14 1 0
BITMAP
1F00
2780
7380
7380
3380
0380
0700
0600
0C00
1800
3080
7F80
FF00
FF00
ENDCHAR
STARTCHAR three
ENCODING 51
SWIDTH 574 0
DWIDTH 11 0
BBX 9 14 1 0
BITMAP
1E00
2300
7380
7380
3380
0700
0C00
0600
0700
6700
E700
C700
CE00
7C00
ENDCHAR
STARTCHAR four
ENCODING 52
SWIDTH 574 0
DWIDTH 11 0
BBX 9 14 1 0
BITMAP
0300
0700
0700
0F00
1700
1700
2700
4E00
4E00
8E00
FF80
0E00
0E00
3F80
ENDCHAR
STARTCHAR five
ENCODING 53
SWIDTH 574 0
DWIDTH 11 0
BBX 10 14 1 0
BITMAP
1FC0
1F80
1F00
3000
2000
3F00
2780
0380
0380
6380
E300
C700
C600
7800
ENDCHAR
STARTCHAR six
ENCODING 54
SWIDTH 574 0
DWIDTH 11 0
BBX 9 14 1 0
BITMAP
0F00
3980
3380
7300
7000
EF00
F380
E380
E380
E380
E300
E700
6600
3800
ENDCHAR
STARTCHAR seven
ENCODING 55
SWIDTH 574 0
DWIDTH 11 0
BBX 9 14 1 0
BITMAP
7F80
7F80
FF80
8300
0600
0600
0C00
0C00
1C00
1C00
3800
3800
3800
3000
ENDCHAR
STARTCHAR eight
ENCODING 56
SWIDTH 574 0
DWIDTH 11 0
BBX 9 14 1 0
BITMAP
0F00
3980
3080
7080
7900
3E00
1E00
3F00
6780
C380
C380
C300
E600
7800
ENDCHAR
STARTCHAR nine
ENCODING 57
SWIDTH 574 0
DWIDTH 11 0
BBX 9 14 1 0
BITMAP
0E00
3300
7380
6380
E380
E380
E380
E780
7B80
0700
6700
E600
CE00
7800
ENDCHAR
STARTCHAR colon
ENCODING 58
SWIDTH 287 0
DWIDTH 6 0
BBX 5 9 0 0
BITMAP
30
78
78
30
00
60
F0
F0
60
ENDCHAR
STARTCHAR semicolon
ENCODING 59
SWIDTH 287 0
DWIDTH 6 0
BBX 5 12 0 -3
BITMAP
30
78
78
30
00
60
F0
F0
70
20
40
80
ENDCHAR
STARTCHAR less
ENCODING 60
SWIDTH 606 0
DWIDTH 10 0
BBX 9 9 0 1
BITMAP
0180
0780
1E00
7800
E000
7800
1E00
0780
0180
ENDCHAR
STARTCHAR equal
ENCODING 61
SWIDTH 606 0
DWIDTH 10 0
BBX 9 6 0 3
BITMAP
FF80
FF80
0000
0000
FF80
FF80
ENDCHAR
STARTCHAR greater
ENCODING 62
SWIDTH 606 0
DWIDTH 10 0
BBX 9 9 0 1
BITMAP
C000
F000
3C00
0F00
0380
0F00
3C00
F000
C000
ENDCHAR
STARTCHAR question
ENCODING 63
SWIDTH 481 0
DWIDTH 8 0
BBX 7 14 0 0
BITMAP
7C
CE
8E
1E
3C
78
F0
E4
78
00
60
F0
F0
60
ENDCHAR
STARTCHAR at
ENCODING 64
SWIDTH 747 0
DWIDTH 15 0
BBX 14 14 0 0
BITMAP
07F0
1C18
300C
6764
4CE4
CC64
98C4
98CC
98C8
99D8
CE70
4000
7030
1FE0
ENDCHAR
STARTCHAR A
ENCODING 65
SWIDTH 741 0
DWIDTH 13 0
BBX 14 14 -2 0
BITMAP
01C0
01C0
03C0
03C0
07E0
04E0
0CE0
08F0
1870
1070
3FF0
2078
6078
F0FC
ENDCHAR
STARTCHAR B
ENCODING 66
SWIDTH 759 0
DWIDTH 15 0
BBX 14 14 0 0
BITMAP
3FF8
0E3C
0E1C
1E1C
1C38
1C70
3FC0
3CF0
3838
3838
7838
7078
70F0
FFC0
ENDCHAR
STARTCHAR C
ENCODING 67
SWIDTH 759 0
DWIDTH 14 0
BBX 13 14 0 0
BITMAP
07E8
1E38
3C18
7810
7810
F000
E000
E000
E000
E000
F010
7010
3860
0FC0
ENDCHAR
STARTCHAR D
ENCODING 68
SWIDTH 833 0
DWIDTH 16 0
BBX 15 14 0 0
BITMAP
3FE0
0E38
0E1C
1E1E
1C1E
1C0E
3C0E
3C0E
381E
381C
783C
7078
70F0
FFC0
ENDCHAR
STARTCHAR E
ENCODING 69
SWIDTH 741 0
DWIDTH 15 0
BBX 14 14 0 0
BITMAP
3FFC
0E1C
0E08
1E08
1C28
1C60
3FE0
3CC0
3840
3848
7818
7030
7070
FFF0
ENDCHAR
STARTCHAR F
ENCODING 70
SWIDTH 704 0
DWIDTH 15 0
BBX 14 14 0 0
BITMAP
3FFC
0E1C
0E08
1E08
1C28
1C60
3FE0
3CC0
3840
3840
7800
7000
7000
FC00
ENDCHAR
STARTCHAR G
ENCODING 71
SWIDTH 815 0
DWIDTH 15 0
BBX 14 14 0 0
BITMAP
07F4
1E1C
3C0C
7808
7808
F000
E000
E000
E1FC
E070
F070
70E0
39E0
0FA0
ENDCHAR
STARTCHAR H
ENCODING 72
SWIDTH 870 0
DWIDTH 17 0
BBX 16 14 0 0
BITMAP
3F3F
0E0E
0E0E
1E1E
1C1C
1C1C
3FFC
3C3C
3838
3838
7878
7070
7070
FCFC
ENDCHAR
STARTCHAR I
ENCODING 73
SWIDTH 444 0
DWIDTH 9 0
BBX 8 14 0 0
BITMAP
3F
0E
0E
1E
1C
1C
3C
3C
38
38
78
70
70
FC
ENDCHAR
STARTCHAR J
ENCODING 74
SWIDTH 667 0
DWIDTH 12 0
BBX 13 14 -2 0
BITMAP
01F8
0070
0070
00F0
00E0
00E0
01E0
01E0
01C0
61C0
F3C0
F380
4780
3E00
ENDCHAR
STARTCHAR K
ENCODING 75
SWIDTH 778 0
DWIDTH 16 0
BBX 16 14 0 0
BITMAP
3F1F
0E0C
0E18
0E30
1C60
1CC0
1DC0
3FC0
3DE0
38F0
7870
7078
703C
FCFE
ENDCHAR
STARTCHAR L
ENCODING 76
SWIDTH 704 0
DWIDTH 14 0
BBX 13 14 0 0
BITMAP
3F00
0E00
0E00
1E00
1C00
1C00
3C00
3800
3800
3808
7818
7030
7070
FFF0
ENDCHAR
STARTCHAR M
ENCODING 77
SWIDTH 944 0
DWIDTH 19 0
BBX 19 14 -1 0
BITMAP
3C03E0
1C07C0
1E07C0
1E0F80
1E0F80
1F1B80
171380
37B380
23E380
23E700
21C700
21C700
618700
F08FC0
ENDCHAR
STARTCHAR N
ENCODING 78
SWIDTH 852 0
DWIDTH 15 0
BBX 16 14 -1 0
BITMAP
3C0F
1E06
1E04
1F04
1F04
1784
13CC
33C8
21E8
21E8
20F8
2078
6070
F030
ENDCHAR
STARTCHAR O
ENCODING 79
SWIDTH 833 0
DWIDTH 15 0
BBX 14 14 0 0
BITMAP
07C0
1C70
3838
783C
701C
F01C
E01C
E01C
E03C
E038
E078
7070
38E0
0F80
ENDCHAR
STARTCHAR P
ENCODING 80
SWIDTH 741 0
DWIDTH 14 0
BBX 14 14 0 0
BITMAP
3FF0
0E38
0E1C
1E1C
1C1C
1C3C
3C78
3FE0
3800
3800
7800
7000
7000
FC00
ENDCHAR
STARTCHAR Q
ENCODING 81
SWIDTH 833 0
DWIDTH 15 0
BBX 14 17 0 -3
BITMAP
07C0
1C70
3838
783C
701C
F01C
E01C
E01C
E03C
E638
F978
71F0
39E0
0FC0
01C8
01F0
00E0
ENDCHAR
STARTCHAR R
ENCODING 82
SWIDTH 796 0
DWIDTH 15 0
BBX 14 14 0 0
BITMAP
3FF8
0E3C
0E1C
1E1C
1C38
1C70
3FC0
3DE0
38E0
38E0
7870
7074
707C
FC38
ENDCHAR
STARTCHAR S
ENCODING 83
SWIDTH 685 0
DWIDTH 13 0
BBX 12 14 0 0
BITMAP
0F90
3870
3030
7020
7820
7E00
3F80
1FC0
07E0
41E0
40E0
C0C0
E1C0
9F00
ENDCHAR
STARTCHAR T
ENCODING 84
SWIDTH 722 0
DWIDTH 13 0
BBX 13 14 0 0
BITMAP
7FF8
6738
C710
8F10
8E10
0E00
1E00
1E00
1C00
1C00
3C00
3800
3800
FE00
ENDCHAR
STARTCHAR U
ENCODING 85
SWIDTH 833 0
DWIDTH 15 0
BBX 15 14 0 0
BITMAP
7E1E
3C0C
3C08
3808
7818
7810
7810
7010
7030
F020
F020
F060
78C0
3F80
ENDCHAR
STARTCHAR V
ENCODING 86
SWIDTH 741 0
DWIDTH 14 0
BBX 14 14 0 0
BITMAP
FC3C
7818
7810
7830
3820
3C60
3C40
1CC0
1C80
1F80
0F00
0F00
0E00
0600
ENDCHAR
STARTCHAR W
ENCODING 87
SWIDTH 944 0
DWIDTH 20 0
BBX 20 14 0 0
BITMAP
FCFCF0
787860
787840
787840
38F880
38B880
3CBC80
3D1D00
1D1D00
1D1D00
1E1E00
1E1E00
0E0E00
0C0C00
ENDCHAR
STARTCHAR X
ENCODING 88
SWIDTH 741 0
DWIDTH 14 0
BBX 16 14 -2 0
BITMAP
1F9F
0F0E
070C
0798
03B0
03E0
01C0
03C0
07E0
0CE0
18F0
3070
7078
F8FC
ENDCHAR
STARTCHAR Y
ENCODING 89
SWIDTH 704 0
DWIDTH 13 0
BBX 13 14 0 0
BITMAP
FC78
7830
7820
3C40
3C40
1E80
1E80
0F00
0F00
1E00
1E00
1E00
1E00
3F00
ENDCHAR
STARTCHAR Z
ENCODING 90
SWIDTH 704 0
DWIDTH 14 0
BBX 13 14 0 0
BITMAP
3FF8
30F8
61F0
41E0
03C0
0780
0F80
0F00
1E00
3C00
7C10
F830
F060
FFE0
ENDCHAR
STARTCHAR bracketleft
ENCODING 91
SWIDTH 407 0
DWIDTH 7 0
BBX 6 16 0 -2
BITMAP
3C
30
30
30
30
60
60
60
60
60
C0
C0
C0
C0
C0
F0
ENDCHAR
STARTCHAR backslash
ENCODING 92
SWIDTH 606 0
DWIDTH 11 0
BBX 8 14 1 0
BITMAP
C0
C0
60
60
30
30
18
18
0C
0C
06
06
03
03
ENDCHAR
STARTCHAR bracketright
ENCODING 93
SWIDTH 407 0
DWIDTH 7 0
BBX 6 16 0 -2
BITMAP
3C
0C
0C
0C
0C
18
18
18
18
18
30
30
30
30
30
F0
ENDCHAR
STARTCHAR asciicircum
ENCODING 94
SWIDTH 606 0
DWIDTH 10 0
BBX 9 9 0 5
BITMAP
0800
1C00
1C00
3600
3600
6300
6300
C180
C180
ENDCHAR
STARTCHAR underscore
ENCODING 95
SWIDTH 500 0
DWIDTH 10 0
BBX 10 2 0 -3
BITMAP
FFC0
FFC0
ENDCHAR
STARTCHAR grave
ENCODING 96
SWIDTH 333 0
DWIDTH 6 0
BBX 5 4 0 10
BITMAP
C0
E0
70
18
ENDCHAR
STARTCHAR a
ENCODING 97
SWIDTH 667 0
DWIDTH 12 0
BBX 11 9 0 0
BITMAP
0DC0
33C0
71C0
E1C0
E1C0
E380
E380
67A0
39C0
ENDCHAR
STARTCHAR b
ENCODING 98
SWIDTH 611 0
DWIDTH 11 0
BBX 10 14 0 0
BITMAP
7800
3800
3800
3800
7000
7700
7980
71C0
F1C0
E1C0
E1C0
E380
6300
3C00
ENDCHAR
STARTCHAR c
ENCODING 99
SWIDTH 537 0
DWIDTH 10 0
BBX 9 9 0 0
BITMAP
0F00
3180
7380
E300
E000
E000
E000
6300
3C00
ENDCHAR
STARTCHAR d
ENCODING 100
SWIDTH 667 0
DWIDTH 13 0
BBX 12 14 0 0
BITMAP
00F0
0070
0070
0070
00E0
0EE0
31E0
70E0
E0E0
E1C0
E1C0
E1C0
63D0
3CE0
ENDCHAR
STARTCHAR e
ENCODING 101
SWIDTH 519 0
DWIDTH 10 0
BBX 9 9 0 0
BITMAP
0F00
3180
7180
E380
E700
F800
E000
6300
3C00
ENDCHAR
STARTCHAR f
ENCODING 102
SWIDTH 389 0
DWIDTH 7 0
BBX 9 18 0 -4
BITMAP
0700
1D80
1980
3800
3800
FE00
7000
7000
7000
7000
7000
E000
E000
E000
E000
E000
E000
C000
ENDCHAR
STARTCHAR g
ENCODING 103
SWIDTH 611 0
DWIDTH 12 0
BBX 13 15 -1 -4
BITMAP
0018
0038
07C0
18E0
38E0
38E0
38C0
0F00
1800
3800
3F80
7FC0
C0C0
C1C0
7F00
ENDCHAR
STARTCHAR h
ENCODING 104
SWIDTH 685 0
DWIDTH 12 0
BBX 11 14 0 0
BITMAP
7800
3800
3800
3800
7000
7380
77C0
79C0
71C0
E1C0
E380
E380
E3A0
E3C0
ENDCHAR
STARTCHAR i
ENCODING 105
SWIDTH 389 0
DWIDTH 6 0
BBX 5 13 0 0
BITMAP
38
38
00
00
F0
70
70
70
E0
E0
E0
E8
F0
ENDCHAR
STARTCHAR j
ENCODING 106
SWIDTH 370 0
DWIDTH 5 0
BBX 10 17 -5 -4
BITMAP
01C0
01C0
0000
0000
0780
0380
0380
0380
0700
0700
0700
0700
0E00
0E00
CE00
CC00
7000
ENDCHAR
STARTCHAR k
ENCODING 107
SWIDTH 648 0
DWIDTH 11 0
BBX 11 14 0 0
BITMAP
7800
3800
3800
3800
7000
7380
77C0
79C0
7180
F600
E700
E720
E3C0
E380
ENDCHAR
STARTCHAR l
ENCODING 108
SWIDTH 389 0
DWIDTH 6 0
BBX 5 14 0 0
BITMAP
78
38
38
38
70
70
70
70
70
E0
E0
E0
E8
F0
ENDCHAR
STARTCHAR m
ENCODING 109
SWIDTH 944 0
DWIDTH 18 0
BBX 17 9 0 0
BITMAP
F38E00
77DF00
79E700
71C700
71C700
E38E00
E38E00
E38E80
E38F00
ENDCHAR
STARTCHAR n
ENCODING 110
SWIDTH 685 0
DWIDTH 12 0
BBX 11 9 0 0
BITMAP
F380
77C0
79C0
71C0
71C0
E380
E380
E3A0
E3C0
ENDCHAR
STARTCHAR o
ENCODING 111
SWIDTH 574 0
DWIDTH 11 0
BBX 10 9 0 0
BITMAP
0F00
3180
71C0
E1C0
E1C0
E1C0
E380
6300
3C00
ENDCHAR
STARTCHAR p
ENCODING 112
SWIDTH 648 0
DWIDTH 12 0
BBX 12 13 -1 -4
BITMAP
3DC0
1E60
1C70
1C70
3870
3870
38E0
38C0
3F00
7000
7000
7000
F800
ENDCHAR
STARTCHAR q
ENCODING 113
SWIDTH 630 0
DWIDTH 12 0
BBX 11 13 0 -4
BITMAP
0E60
31E0
70E0
E0E0
E1C0
E1C0
E1C0
63C0
3DC0
0380
0380
0380
07C0
ENDCHAR
STARTCHAR r
ENCODING 114
SWIDTH 519 0
DWIDTH 9 0
BBX 9 9 0 0
BITMAP
F380
7780
7B00
7000
7000
E000
E000
E000
E000
ENDCHAR
STARTCHAR s
ENCODING 115
SWIDTH 481 0
DWIDTH 10 0
BBX 9 9 0 0
BITMAP
0F00
3380
7300
7800
3E00
0F00
6700
E600
7800
ENDCHAR
STARTCHAR t
ENCODING 116
SWIDTH 407 0
DWIDTH 8 0
BBX 7 12 1 0
BITMAP
38
38
38
FE
70
70
70
E0
E0
E0
E8
F0
ENDCHAR
STARTCHAR u
ENCODING 117
SWIDTH 685 0
DWIDTH 12 0
BBX 11 9 0 0
BITMAP
F1C0
71C0
71C0
71C0
E380
E380
E780
FBA0
73C0
ENDCHAR
STARTCHAR v
ENCODING 118
SWIDTH 556 0
DWIDTH 10 0
BBX 9 9 0 0
BITMAP
F300
7380
7180
7080
E080
E100
E300
7E00
3800
ENDCHAR
STARTCHAR w
ENCODING 119
SWIDTH 833 0
DWIDTH 16 0
BBX 15 9 0 0
BITMAP
F1CC
71CE
71C6
71C2
E382
E384
E38C
7DF8
38E0
ENDCHAR
STARTCHAR x
ENCODING 120
SWIDTH 574 0
DWIDTH 11 0
BBX 10 9 0 0
BITMAP
38C0
79C0
1E00
1C00
0E00
1E00
3740
E780
C300
ENDCHAR
STARTCHAR y
ENCODING 121
SWIDTH 519 0
DWIDTH 10 0
BBX 10 13 -1 -4
BITMAP
30C0
78C0
B840
1C80
1C80
0F00
0F00
0600
0600
0400
C800
F000
6000
ENDCHAR
STARTCHAR z
ENCODING 122
SWIDTH 519 0
DWIDTH 11 0
BBX 10 9 0 0
BITMAP
1EC0
3F80
4300
0600
0C00
1800
3080
7F00
DE00
ENDCHAR
STARTCHAR braceleft
ENCODING 123
SWIDTH 407 0
DWIDTH 8 0
BBX 7 16 0 -2
BITMAP
0E
18
18
18
30
30
30
C0
60
60
60
60
60
60
60
38
ENDCHAR
STARTCHAR bar
ENCODING 124
SWIDTH 606 0
DWIDTH 11 0
BBX 2 14 4 0
BITMAP
C0
C0
C0
C0
C0
C0
C0
C0
C0
C0
C0
C0
C0
C0
ENDCHAR
STARTCHAR braceright
ENCODING 125
SWIDTH 407 0
DWIDTH 8 0
BBX 7 16 0 -2
BITMAP
38
0C
0C
0C
0C
0C
0C
06
18
18
18
18
30
30
30
E0
ENDCHAR
STARTCHAR asciitilde
ENCODING 126
SWIDTH 606 0
DWIDTH 11 0
BBX 10 3 0 5
BITMAP
78C0
FFC0
C780
ENDCHAR
STARTCHAR space
ENCODING 160
SWIDTH 287 0
DWIDTH 5 0
BBX 1 1 0 0
BITMAP
00
ENDCHAR
STARTCHAR Aogonek
ENCODING 161
SWIDTH 741 0
DWIDTH 13 0
BBX 14 18 -2 -4
BITMAP
01C0
01C0
03C0
03C0
07E0
04E0
0CE0
08F0
1870
1070
3FF0
2078
6078
F0FC
0080
0300
0340
0180
ENDCHAR
STARTCHAR Emacron
ENCODING 162
SWIDTH 741 0
DWIDTH 15 0
BBX 14 17 0 0
BITMAP
07E0
07E0
0000
3FFC
0E1C
0E08
1E08
1C28
1C60
3FE0
3CC0
3840
3848
7818
7030
7070
FFF0
ENDCHAR
STARTCHAR Gcommaaccent
ENCODING 163
SWIDTH 815 0
DWIDTH 15 0
BBX 14 22 0 -8
BITMAP
07F4
1E1C
3C0C
7808
7808
F000
E000
E000
E1FC
E070
F070
70E0
39E0
0FA0
0000
0300
0780
0780
0380
0100
0200
0400
ENDCHAR
STARTCHAR Imacron
ENCODING 164
SWIDTH 444 0
DWIDTH 9 0
BBX 8 17 0 0
BITMAP
3F
3F
00
3F
0E
0E
1E
1C
1C
3C
3C
38
38
78
70
70
FC
ENDCHAR
STARTCHAR Itilde
ENCODING 165
SWIDTH 444 0
DWIDTH 9 0
BBX 8 18 0 0
BITMAP
39
7F
4E
00
3F
0E
0E
1E
1C
1C
3C
3C
38
38
78
70
70
FC
ENDCHAR
STARTCHAR Kcommaaccent
ENCODING 166
SWIDTH 778 0
DWIDTH 16 0
BBX 16 22 0 -8
BITMAP
3F1F
0E0C
0E18
0E30
1C60
1CC0
1DC0
3FC0
3DE0
38F0
7870
7078
703C
FCFE
0000
0180
03C0
03C0
01C0
0080
0100
0200
ENDCHAR
STARTCHAR section
ENCODING 167
SWIDTH 500 0
DWIDTH 12 0
BBX 11 17 0 -3
BITMAP
07C0
0C60
08E0
0CC0
0E00
1F00
2780
63C0
71C0
78C0
3D80
1E00
0F00
6700
E300
C600
7C00
ENDCHAR
STARTCHAR Lcommaaccent
ENCODING 168
SWIDTH 704 0
DWIDTH 14 0
BBX 13 22 0 -8
BITMAP
3F00
0E00
0E00
1E00
1C00
1C00
3C00
3800
3800
3808
7818
7030
7070
FFF0
0000
0600
0F00
0F00
0700
0200
0400
0800
ENDCHAR
STARTCHAR Dcroat
ENCODING 169
SWIDTH 833 0
DWIDTH 16 0
BBX 15 14 0 0
BITMAP
3FE0
0E38
0E1C
1E1E
1C0E
1C0E
FF0E
3C0E
381E
381C
783C
7078
70F0
FFC0
ENDCHAR
STARTCHAR Scaron
ENCODING 170
SWIDTH 685 0
DWIDTH 13 0
BBX 11 14 0 0
BITMAP
0660
06C0
0380
0300
0FE0
3C60
3820
7E00
7F80
3FC0
07E0
83E0
C7C0
FF80
ENDCHAR
STARTCHAR Tbar
ENCODING 171
SWIDTH 722 0
DWIDTH 13 0
BBX 13 14 0 0
BITMAP
7FF8
6738
C710
8F10
8E10
0E00
1FE0
1FE0
1C00
1C00
3C00
3800
3800
FE00
ENDCHAR
STARTCHAR Zcaron
ENCODING 172
SWIDTH 704 0
DWIDTH 14 0
BBX 13 14 0 0
BITMAP
0660
06C0
0380
0300
7FF8
61F0
43E0
07C0
0F80
1F10
3E10
7C30
F870
FFF0
ENDCHAR
STARTCHAR hyphen
ENCODING 173
SWIDTH 333 0
DWIDTH 6 0
BBX 5 2 0 4
BITMAP
F8
F8
ENDCHAR
STARTCHAR Umacron
ENCODING 174
SWIDTH 833 0
DWIDTH 15 0
BBX 15 17 0 0
BITMAP
0FC0
0FC0
0000
7E1E
3C0C
3C08
3808
7818
7810
7810
7010
7030
F020
F020
F060
78C0
3F80
ENDCHAR
STARTCHAR Eng
ENCODING 175
SWIDTH 852 0
DWIDTH 15 0
BBX 16 18 -1 -4
BITMAP
3C0F
1E06
1E04
1F04
1F04
1784
13CC
33C8
21E8
21E8
20F8
2078
6078
F070
0070
0670
0660
0380
ENDCHAR
STARTCHAR degree
ENCODING 176
SWIDTH 400 0
DWIDTH 7 0
BBX 6 6 0 8
BITMAP
78
CC
84
84
CC
78
ENDCHAR
STARTCHAR aogonek
ENCODING 177
SWIDTH 667 0
DWIDTH 12 0
BBX 11 13 0 -4
BITMAP
0DC0
33C0
71C0
E1C0
E1C0
E380
E380
67A0
39C0
0200
0C00
0D00
0600
ENDCHAR
STARTCHAR emacron
ENCODING 178
SWIDTH 519 0
DWIDTH 10 0
BBX 9 12 0 0
BITMAP
3F00
3F00
0000
0F00
3180
7180
E380
E700
F800
E000
6300
3C00
ENDCHAR
STARTCHAR gcommaaccent
ENCODING 179
SWIDTH 611 0
DWIDTH 12 0
BBX 13 23 -1 -4
BITMAP
0040
0080
0100
0380
03C0
03C0
0180
0000
0018
0038
07C0
18E0
38E0
38E0
38C0
0F00
1800
3800
3F80
7FC0
C0C0
C1C0
7F00
ENDCHAR
STARTCHAR imacron
ENCODING 180
SWIDTH 389 0
DWIDTH 6 0
BBX 6 12 -1 0
BITMAP
FC
FC
00
78
38
38
38
70
70
70
74
38
ENDCHAR
STARTCHAR itilde
ENCODING 181
SWIDTH 389 0
DWIDTH 6 0
BBX 7 13 -1 0
BITMAP
72
FE
9C
00
78
38
38
38
70
70
70
74
38
ENDCHAR
STARTCHAR kcommaaccent
ENCODING 182
SWIDTH 648 0
DWIDTH 11 0
BBX 11 22 0 -8
BITMAP
7800
3800
3800
3800
7000
7380
77C0
79C0
7180
F600
E700
E720
E3C0
E380
0000
0C00
1E00
1E00
0E00
0400
0800
1000
ENDCHAR
STARTCHAR periodcentered
ENCODING 183
SWIDTH 287 0
DWIDTH 7 0
BBX 4 4 1 4
BITMAP
60
F0
F0
60
ENDCHAR
STARTCHAR lcommaaccent
ENCODING 184
SWIDTH 389 0
DWIDTH 6 0
BBX 5 22 0 -8
BITMAP
78
38
38
38
70
70
70
70
70
E0
E0
E0
E8
F0
00
60
F0
F0
70
20
40
80
ENDCHAR
STARTCHAR dcroat
ENCODING 185
SWIDTH 667 0
DWIDTH 13 0
BBX 13 14 0 0
BITMAP
00F0
0070
0070
07F8
07F8
0EE0
31E0
70E0
E0E0
E1C0
E1C0
E1C0
63D0
3CE0
ENDCHAR
STARTCHAR scaron
ENCODING 186
SWIDTH 481 0
DWIDTH 10 0
BBX 9 14 0 0
BITMAP
1980
1B00
0E00
0C00
0000
0F00
3380
7300
7800
3E00
0F00
6700
E600
7800
ENDCHAR
STARTCHAR tbar
ENCODING 187
SWIDTH 407 0
DWIDTH 8 0
BBX 8 12 1 0
BITMAP
38
38
38
FE
70
70
70
FF
FF
E0
E8
F0
ENDCHAR
STARTCHAR zcaron
ENCODING 188
SWIDTH 519 0
DWIDTH 11 0
BBX 10 14 0 0
BITMAP
0CC0
0D80
0700
0600
0000
1EC0
3F80
4300
0600
0C00
1800
3080
7F00
DE00
ENDCHAR
STARTCHAR afii00208
ENCODING 189
SWIDTH 1000 0
DWIDTH 19 0
BBX 19 2 0 5
BITMAP
FFFFE0
FFFFE0
ENDCHAR
STARTCHAR umacron
ENCODING 190
SWIDTH 685 0
DWIDTH 12 0
BBX 11 12 0 0
BITMAP
3F00
3F00
0000
F1C0
71C0
71C0
71C0
E380
E380
E780
FBA0
73C0
ENDCHAR
STARTCHAR eng
ENCODING 191
SWIDTH 685 0
DWIDTH 12 0
BBX 10 13 0 -4
BITMAP
F380
77C0
79C0
71C0
71C0
E380
E380
E380
E700
0700
6700
6600
3800
ENDCHAR
STARTCHAR Amacron
ENCODING 192
SWIDTH 741 0
DWIDTH 13 0
BBX 14 17 -2 0
BITMAP
07E0
07E0
0000
01C0
01C0
03C0
03C0
07E0
04E0
0CE0
08F0
1870
1070
3FF0
2078
6078
F0FC
ENDCHAR
STARTCHAR Aacute
ENCODING 193
SWIDTH 741 0
DWIDTH 13 0
BBX 14 18 -2 0
BITMAP
0070
00E0
0180
0000
01C0
01C0
03C0
03C0
07E0
04E0
0CE0
08E0
1870
1070
3FF0
2078
6078
F0FC
ENDCHAR
STARTCHAR Acircumflex
ENCODING 194
SWIDTH 741 0
DWIDTH 13 0
BBX 14 18 -2 0
BITMAP
00E0
01B0
0330
0000
01C0
01C0
03C0
03C0
07E0
04E0
0CE0
08E0
1870
1070
3FF0
2078
6078
F0FC
ENDCHAR
STARTCHAR Atilde
ENCODING 195
SWIDTH 741 0
DWIDTH 13 0
BBX 14 18 -2 0
BITMAP
0190
03F0
0260
0000
01C0
01C0
03C0
03C0
07E0
04E0
0CE0
08E0
1870
1070
3FF0
2078
6078
F0FC
ENDCHAR
STARTCHAR Adieresis
ENCODING 196
SWIDTH 741 0
DWIDTH 13 0
BBX 14 18 -2 0
BITMAP
0330
0330
0330
0000
01C0
01C0
03C0
03C0
07E0
04E0
0CE0
08E0
1870
1070
3FF0
2078
6078
F0FC
ENDCHAR
STARTCHAR Aring
ENCODING 197
SWIDTH 741 0
DWIDTH 13 0
BBX 14 18 -2 0
BITMAP
00C0
0120
0120
00C0
01C0
01C0
03C0
03C0
07E0
04E0
0CE0
08E0
1870
1070
3FF0
2078
6078
F0FC
ENDCHAR
STARTCHAR AE
ENCODING 198
SWIDTH 889 0
DWIDTH 21 0
BBX 21 14 -1 0
BITMAP
07FFF8
011E38
031C10
021C10
063C50
0438C0
0C3FC0
087980
1FF880
107090
30F030
20E060
60E0E0
F1FFE0
ENDCHAR
STARTCHAR Iogonek
ENCODING 199
SWIDTH 444 0
DWIDTH 9 0
BBX 8 18 0 -4
BITMAP
3F
0E
0E
1E
1C
1C
3C
3C
38
38
78
70
70
FC
08
30
34
18
ENDCHAR
STARTCHAR Ccaron
ENCODING 200
SWIDTH 759 0
DWIDTH 14 0
BBX 13 19 0 0
BITMAP
0CC0
0D80
0700
0600
0000
07E8
1E38
3C18
7810
7810
F000
E000
E000
E000
E000
F010
7010
3860
0FC0
ENDCHAR
STARTCHAR Eacute
ENCODING 201
SWIDTH 741 0
DWIDTH 15 0
BBX 14 18 0 0
BITMAP
0038
0070
00C0
0000
3FFC
0E1C
0E08
1E08
1C28
1C60
3FE0
3CC0
3840
3848
7818
7030
7070
FFF0
ENDCHAR
STARTCHAR Eogonek
ENCODING 202
SWIDTH 741 0
DWIDTH 15 0
BBX 14 18 0 -4
BITMAP
3FFC
0E1C
0E08
1E08
1C28
1C60
3FE0
3CC0
3840
3848
7818
7030
7070
FFF0
0100
0600
0680
0300
ENDCHAR
STARTCHAR Edieresis
ENCODING 203
SWIDTH 741 0
DWIDTH 15 0
BBX 14 18 0 0
BITMAP
0330
0330
0330
0000
3FFC
0E1C
0E08
1E08
1C28
1C60
3FE0
3CC0
3840
3848
7818
7030
7070
FFF0
ENDCHAR
STARTCHAR Edotaccent
ENCODING 204
SWIDTH 741 0
DWIDTH 15 0
BBX 14 18 0 0
BITMAP
0180
0180
0180
0000
3FFC
0E1C
0E08
1E08
1C28
1C60
3FE0
3CC0
3840
3848
7818
7030
7070
FFF0
ENDCHAR
STARTCHAR Iacute
ENCODING 205
SWIDTH 444 0
DWIDTH 9 0
BBX 10 18 0 0
BITMAP
01C0
0380
0600
0000
3F00
0E00
0E00
1E00
1C00
1C00
3C00
3C00
3800
3800
7800
7000
7000
FC00
ENDCHAR
STARTCHAR Icircumflex
ENCODING 206
SWIDTH 444 0
DWIDTH 9 0
BBX 9 18 0 0
BITMAP
0700
0D80
1980
0000
3F00
0E00
0E00
1E00
1C00
1C00
3C00
3C00
3800
3800
7800
7000
7000
FC00
ENDCHAR
STARTCHAR Idieresis
ENCODING 207
SWIDTH 444 0
DWIDTH 9 0
BBX 9 18 0 0
BITMAP
1980
1980
1980
0000
3F00
0E00
0E00
1E00
1C00
1C00
3C00
3C00
3800
3800
7800
7000
7000
FC00
ENDCHAR
STARTCHAR Eth
ENCODING 208
SWIDTH 833 0
DWIDTH 16 0
BBX 15 14 0 0
BITMAP
3FE0
0E38
0E1C
1E1E
1C0E
1C0E
FF0E
3C0E
381E
381C
783C
7078
70F0
FFC0
ENDCHAR
STARTCHAR Ncommaaccent
ENCODING 209
SWIDTH 852 0
DWIDTH 15 0
BBX 16 22 -1 -8
BITMAP
3C0F
1E06
1E04
1F04
1F04
1784
13CC
33C8
21E8
21E8
20F8
2078
6070
F030
0000
0180
03C0
03C0
01C0
0080
0100
0200
ENDCHAR
STARTCHAR Omacron
ENCODING 210
SWIDTH 833 0
DWIDTH 15 0
BBX 14 17 0 0
BITMAP
0FC0
0FC0
0000
07C0
1C70
3838
783C
701C
F01C
E01C
E01C
E03C
E038
E078
7070
38E0
0F80
ENDCHAR
STARTCHAR Oacute
ENCODING 211
SWIDTH 833 0
DWIDTH 15 0
BBX 14 18 0 0
BITMAP
0070
00E0
0180
0000
07C0
1C70
3838
783C
701C
E01C
E01C
E01C
E03C
E038
F078
7070
38E0
0F80
ENDCHAR
STARTCHAR Ocircumflex
ENCODING 212
SWIDTH 833 0
DWIDTH 15 0
BBX 14 18 0 0
BITMAP
01C0
0360
0660
0000
07C0
1C70
3838
783C
701C
E01C
E01C
E01C
E03C
E038
F078
7070
38E0
0F80
ENDCHAR
STARTCHAR Otilde
ENCODING 213
SWIDTH 833 0
DWIDTH 15 0
BBX 14 18 0 0
BITMAP
0190
03F0
0260
0000
07C0
1C70
3838
783C
701C
F01C
E01C
E01C
E03C
E038
E078
7070
38E0
0F80
ENDCHAR
STARTCHAR Odieresis
ENCODING 214
SWIDTH 833 0
DWIDTH 15 0
BBX 14 18 0 0
BITMAP
0660
0660
0660
0000
07C0
1C70
3838
783C
701C
F01C
E01C
E01C
E03C
E038
E078
7070
38E0
0F80
ENDCHAR
STARTCHAR Utilde
ENCODING 215
SWIDTH 833 0
DWIDTH 15 0
BBX 15 18 0 0
BITMAP
0720
0FE0
09C0
0000
7E1E
3C0C
3C08
3808
7818
7810
7810
7010
7030
F020
F020
F060
78C0
3F80
ENDCHAR
STARTCHAR Oslash
ENCODING 216
SWIDTH 833 0
DWIDTH 15 0
BBX 16 14 -1 0
BITMAP
03E3
0E3E
1C1C
3C3E
386E
78CE
718E
731E
761E
7C1C
783C
7838
DC70
87C0
ENDCHAR
STARTCHAR Uogonek
ENCODING 217
SWIDTH 833 0
DWIDTH 15 0
BBX 15 18 0 -4
BITMAP
7E1E
3C0C
3C08
3808
7818
7810
7810
7010
7030
F020
F020
F060
78C0
3F80
0200
0C00
0D00
0600
ENDCHAR
STARTCHAR Uacute
ENCODING 218
SWIDTH 833 0
DWIDTH 15 0
BBX 15 18 0 0
BITMAP
0070
00E0
0180
0000
7E1E
3C0C
3C08
3808
3818
7810
7810
7010
7030
F020
F020
F060
78C0
3F80
ENDCHAR
STARTCHAR Ucircumflex
ENCODING 219
SWIDTH 833 0
DWIDTH 15 0
BBX 15 18 0 0
BITMAP
01C0
0360
0660
0000
7E1E
3C0C
3C08
3808
3818
7810
7810
7010
7030
F020
F020
F060
78C0
3F80
ENDCHAR
STARTCHAR Udieresis
ENCODING 220
SWIDTH 833 0
DWIDTH 15 0
BBX 15 18 0 0
BITMAP
0330
0330
0330
0000
7E1E
3C0C
3C08
3808
3818
7810
7810
7010
7030
F020
F020
F060
78C0
3F80
ENDCHAR
STARTCHAR Yacute
ENCODING 221
SWIDTH 704 0
DWIDTH 13 0
BBX 13 18 0 0
BITMAP
00E0
01C0
0300
0000
FC78
7830
3820
3C40
1C40
1C80
0E80
0F00
0F00
0E00
1E00
1E00
1E00
3F00
ENDCHAR
STARTCHAR Thorn
ENCODING 222
SWIDTH 741 0
DWIDTH 14 0
BBX 13 14 0 0
BITMAP
3F00
0E00
0E00
1FC0
1CF0
1C78
3C78
3878
3878
38F0
7FC0
7000
7000
FC00
ENDCHAR
STARTCHAR germandbls
ENCODING 223
SWIDTH 574 0
DWIDTH 12 0
BBX 12 18 -1 -3
BITMAP
03C0
0E60
0C70
1C70
1C70
1CE0
3980
38C0
38E0
38E0
70E0
70E0
71C0
7700
E000
E000
E000
C000
ENDCHAR
STARTCHAR amacron
ENCODING 224
SWIDTH 667 0
DWIDTH 12 0
BBX 11 12 0 0
BITMAP
1F80
1F80
0000
0DC0
33C0
71C0
E1C0
E1C0
E380
E380
67A0
39C0
ENDCHAR
STARTCHAR aacute
ENCODING 225
SWIDTH 667 0
DWIDTH 12 0
BBX 11 14 0 0
BITMAP
0180
0380
0700
0C00
0000
0DC0
33C0
71C0
E1C0
E1C0
E380
E380
67A0
39C0
ENDCHAR
STARTCHAR acircumflex
ENCODING 226
SWIDTH 667 0
DWIDTH 12 0
BBX 11 14 0 0
BITMAP
0300
0700
0D80
1980
0000
0DC0
33C0
71C0
E1C0
E1C0
E380
E380
67A0
39C0
ENDCHAR
STARTCHAR atilde
ENCODING 227
SWIDTH 667 0
DWIDTH 12 0
BBX 11 13 0 0
BITMAP
0C80
1F80
1300
0000
0DC0
33C0
71C0
E1C0
E1C0
E380
E380
67A0
39C0
ENDCHAR
STARTCHAR adieresis
ENCODING 228
SWIDTH 667 0
DWIDTH 12 0
BBX 11 13 0 0
BITMAP
1980
1980
1980
0000
0DC0
33C0
71C0
E1C0
E1C0
E380
E380
67A0
39C0
ENDCHAR
STARTCHAR aring
ENCODING 229
SWIDTH 667 0
DWIDTH 12 0
BBX 11 14 0 0
BITMAP
0600
0900
0900
0600
0000
0DC0
33C0
71C0
E1C0
E1C0
E380
E380
67A0
39C0
ENDCHAR
STARTCHAR ae
ENCODING 230
SWIDTH 815 0
DWIDTH 16 0
BBX 15 9 0 0
BITMAP
3E3C
7346
63C6
038E
0F9C
73E0
E380
E58C
78F0
ENDCHAR
STARTCHAR iogonek
ENCODING 231
SWIDTH 389 0
DWIDTH 6 0
BBX 5 17 0 -4
BITMAP
38
38
00
00
F0
70
70
70
E0
E0
E0
E8
F0
20
C0
D0
60
ENDCHAR
STARTCHAR ccaron
ENCODING 232
SWIDTH 537 0
DWIDTH 10 0
BBX 9 14 0 0
BITMAP
1980
1B00
0E00
0C00
0000
0F00
3180
7380
E300
E000
E000
E000
6300
3C00
ENDCHAR
STARTCHAR eacute
ENCODING 233
SWIDTH 519 0
DWIDTH 10 0
BBX 9 14 0 0
BITMAP
0300
0700
0E00
1800
0000
0F00
3180
7180
E380
E700
F800
E000
6300
3C00
ENDCHAR
STARTCHAR eogonek
ENCODING 234
SWIDTH 519 0
DWIDTH 10 0
BBX 9 13 0 -4
BITMAP
0F00
3180
7180
E380
E700
F800
E000
6300
3C00
0800
3000
3400
1800
ENDCHAR
STARTCHAR edieresis
ENCODING 235
SWIDTH 519 0
DWIDTH 10 0
BBX 9 13 0 0
BITMAP
3300
3300
3300
0000
0F00
3180
7180
E380
E700
F800
E000
6300
3C00
ENDCHAR
STARTCHAR edotaccent
ENCODING 236
SWIDTH 519 0
DWIDTH 10 0
BBX 9 13 0 0
BITMAP
0C00
0C00
0C00
0000
0F00
3180
7180
E380
E700
F800
E000
6300
3C00
ENDCHAR
STARTCHAR iacute
ENCODING 237
SWIDTH 389 0
DWIDTH 6 0
BBX 5 14 0 0
BITMAP
18
38
70
C0
00
F0
70
70
70
E0
E0
E0
E8
70
ENDCHAR
STARTCHAR icircumflex
ENCODING 238
SWIDTH 389 0
DWIDTH 6 0
BBX 6 14 0 0
BITMAP
18
38
6C
CC
00
F0
70
70
70
E0
E0
E0
E8
70
ENDCHAR
STARTCHAR idieresis
ENCODING 239
SWIDTH 389 0
DWIDTH 6 0
BBX 6 13 0 0
BITMAP
CC
CC
CC
00
F0
70
70
70
E0
E0
E0
E8
70
ENDCHAR
STARTCHAR eth
ENCODING 240
SWIDTH 574 0
DWIDTH 11 0
BBX 10 14 0 0
BITMAP
6000
1B00
1C00
6600
0300
0F80
3180
71C0
E1C0
E1C0
E1C0
E380
6300
3C00
ENDCHAR
STARTCHAR ncommaaccent
ENCODING 241
SWIDTH 685 0
DWIDTH 12 0
BBX 11 17 0 -8
BITMAP
F380
77C0
79C0
71C0
71C0
E380
E380
E3A0
E3C0
0000
0C00
1E00
1E00
0E00
0400
0800
1000
ENDCHAR
STARTCHAR omacron
ENCODING 242
SWIDTH 574 0
DWIDTH 11 0
BBX 10 12 0 0
BITMAP
3F00
3F00
0000
0F00
3180
71C0
E1C0
E1C0
E1C0
E380
6300
3C00
ENDCHAR
STARTCHAR oacute
ENCODING 243
SWIDTH 574 0
DWIDTH 11 0
BBX 10 14 0 0
BITMAP
0300
0700
0E00
1800
0000
0F00
3180
71C0
E1C0
E1C0
E1C0
E380
6300
3C00
ENDCHAR
STARTCHAR ocircumflex
ENCODING 244
SWIDTH 574 0
DWIDTH 11 0
BBX 10 14 0 0
BITMAP
0300
0700
0D80
1980
0000
0F00
3180
71C0
E1C0
E1C0
E1C0
E380
6300
3C00
ENDCHAR
STARTCHAR otilde
ENCODING 245
SWIDTH 574 0
DWIDTH 11 0
BBX 10 13 0 0
BITMAP
0C80
1F80
1300
0000
0F00
3180
71C0
E1C0
E1C0
E1C0
E380
6300
3C00
ENDCHAR
STARTCHAR odieresis
ENCODING 246
SWIDTH 574 0
DWIDTH 11 0
BBX 10 13 0 0
BITMAP
1980
1980
1980
0000
0F00
3180
71C0
E1C0
E1C0
E1C0
E380
6300
3C00
ENDCHAR
STARTCHAR utilde
ENCODING 247
SWIDTH 685 0
DWIDTH 12 0
BBX 11 13 0 0
BITMAP
1C80
3F80
2700
0000
F1C0
71C0
71C0
71C0
E380
E380
E780
FBA0
73C0
ENDCHAR
STARTCHAR oslash
ENCODING 248
SWIDTH 574 0
DWIDTH 11 0
BBX 10 11 0 -1
BITMAP
0100
0F00
3380
75C0
E5C0
E9C0
E9C0
F380
7300
3C00
2000
ENDCHAR
STARTCHAR uogonek
ENCODING 249
SWIDTH 685 0
DWIDTH 12 0
BBX 11 13 0 -4
BITMAP
F1C0
71C0
71C0
71C0
E380
E380
E780
FBA0
73C0
0200
0C00
0D00
0600
ENDCHAR
STARTCHAR uacute
ENCODING 250
SWIDTH 685 0
DWIDTH 12 0
BBX 11 14 0 0
BITMAP
0300
0700
0E00
1800
0000
F1C0
71C0
71C0
71C0
E380
E380
E780
FBA0
73C0
ENDCHAR
STARTCHAR ucircumflex
ENCODING 251
SWIDTH 685 0
DWIDTH 12 0
BBX 11 14 0 0
BITMAP
0600
0E00
1B00
3300
0000
F1C0
71C0
71C0
71C0
E380
E380
E780
FBA0
73C0
ENDCHAR
STARTCHAR udieresis
ENCODING 252
SWIDTH 685 0
DWIDTH 12 0
BBX 11 13 0 0
BITMAP
1980
1980
1980
0000
F1C0
71C0
71C0
71C0
E380
E380
E780
FBA0
73C0
ENDCHAR
STARTCHAR yacute
ENCODING 253
SWIDTH 519 0
DWIDTH 10 0
BBX 10 18 -1 -4
BITMAP
00C0
01C0
0380
0600
0000
30C0
78C0
B840
1C80
1C80
0F00
0F00
0600
0600
0400
C800
F000
6000
ENDCHAR
STARTCHAR thorn
ENCODING 254
SWIDTH 648 0
DWIDTH 12 0
BBX 12 18 -1 -4
BITMAP
1E00
0E00
0E00
0E00
0C00
1DC0
1E60
1C70
1C70
3870
3870
38E0
38C0
3F00
7000
7000
7000
F800
ENDCHAR
STARTCHAR kgreenlandic
ENCODING 255
SWIDTH 648 0
DWIDTH 11 0
BBX 11 9 0 0
BITMAP
7380
77C0
79C0
7180
F600
E700
E720
E3C0
E380
ENDCHAR
ENDFONT
